{
  "asset": {
    "version": "2.0",
    "generator": "Dao3 Map Exporter"
  },
  "scene": 0,
  "scenes": [
    {
      "nodes": [
        0
      ]
    }
  ],
  "nodes": [
    {
      "mesh": 0,
      "name": "model"
    }
  ],
  "meshes": [
    {
      "primitives": [
        {
          "attributes": {
            "POSITION": 0
          },
          "indices": 1,
          "material": 0
        }
      ]
    }
  ],
  "materials": [
    {
      "pbrMetallicRoughness": {
        "baseColorFactor": [
          0.8,
          0.8,
          0.8,
          1
        ],
        "metallicFactor": 0.1,
        "roughnessFactor": 0.8
      },
      "name": "color_0"
    }
  ],
  "buffers": [
    {
      "uri": "data:application/octet-stream;base64,",
      "byteLength": 180240
    }
  ],
  "bufferViews": [
    {
      "buffer": 0,
      "byteOffset": 0,
      "byteLength": 144192,
      "target": 34962
    },
    {
      "buffer": 0,
      "byteOffset": 144192,
      "byteLength": 36048,
      "target": 34963
    }
  ],
  "accessors": [
    {
      "bufferView": 0,
      "componentType": 5126,
      "count": 12016,
      "type": "VEC3",
      "max": [
        10,
        124,
        2
      ],
      "min": [
        0,
        0,
        0
      ]
    },
    {
      "bufferView": 1,
      "componentType": 5123,
      "count": 18024,
      "type": "SCALAR"
    }
  ]
}