{
  "asset": {
    "generator": "ArenaPro Web VCode Exporter",
    "version": "2.0"
  },
  "extensionsUsed": [
    "KHR_materials_unlit"
  ],
  "accessors": [
    {
      "name": "positions_0",
      "componentType": 5126,
      "count": 1960,
      "type": "VEC3",
      "bufferView": 0,
      "byteOffset": 0,
      "min": [
        0,
        0,
        0
      ],
      "max": [
        30,
        71,
        12
      ]
    },
    {
      "name": "texcoords_0",
      "componentType": 5126,
      "count": 1960,
      "type": "VEC2",
      "bufferView": 1,
      "byteOffset": 0,
      "min": [
        0.021739130434782608,
        0.03571428571428571
      ],
      "max": [
        0.9782608695652174,
        0.9642857142857143
      ]
    },
    {
      "name": "indices_0",
      "componentType": 5123,
      "count": 2940,
      "type": "SCALAR",
      "bufferView": 2,
      "byteOffset": 0,
      "min": [
        0
      ],
      "max": [
        1959
      ]
    },
    {
      "name": "positions_1",
      "componentType": 5126,
      "count": 1280,
      "type": "VEC3",
      "bufferView": 3,
      "byteOffset": 0,
      "min": [
        0,
        0,
        0
      ],
      "max": [
        3,
        18,
        27
      ]
    },
    {
      "name": "texcoords_1",
      "componentType": 5126,
      "count": 1280,
      "type": "VEC2",
      "bufferView": 4,
      "byteOffset": 0,
      "min": [
        0.021739130434782608,
        0.4642857142857143
      ],
      "max": [
        0.9130434782608695,
        0.9642857142857143
      ]
    },
    {
      "name": "indices_1",
      "componentType": 5123,
      "count": 1920,
      "type": "SCALAR",
      "bufferView": 5,
      "byteOffset": 0,
      "min": [
        0
      ],
      "max": [
        1279
      ]
    }
  ],
  "bufferViews": [
    {
      "name": "bufferView_positions_0",
      "buffer": 0,
      "byteLength": 23520,
      "byteOffset": 0,
      "byteStride": 12,
      "target": 34962
    },
    {
      "name": "bufferView_texcoords_0",
      "buffer": 0,
      "byteLength": 15680,
      "byteOffset": 23520,
      "byteStride": 8,
      "target": 34962
    },
    {
      "name": "bufferView_indices_0",
      "buffer": 0,
      "byteLength": 5880,
      "byteOffset": 39200,
      "target": 34963
    },
    {
      "name": "bufferView_positions_1",
      "buffer": 0,
      "byteLength": 15360,
      "byteOffset": 45080,
      "byteStride": 12,
      "target": 34962
    },
    {
      "name": "bufferView_texcoords_1",
      "buffer": 0,
      "byteLength": 10240,
      "byteOffset": 60440,
      "byteStride": 8,
      "target": 34962
    },
    {
      "name": "bufferView_indices_1",
      "buffer": 0,
      "byteLength": 3840,
      "byteOffset": 70680,
      "target": 34963
    },
    {
      "name": "bufferView_image",
      "buffer": 0,
      "byteLength": 427,
      "byteOffset": 74520
    },
    {
      "name": "bufferView_emissive_image",
      "buffer": 0,
      "byteLength": 162,
      "byteOffset": 74947
    }
  ],
  "buffers": [
    {
      "name": "圣诞糖果棍",
      "byteLength": 75112,
      "uri": "data:application/octet-stream;base64,"
    }
  ],
  "images": [
    {
      "name": "image",
      "mimeType": "image/png",
      "bufferView": 6
    },
    {
      "name": "emissive image",
      "mimeType": "image/png",
      "bufferView": 7
    }
  ],
  "materials": [
    {
      "name": "material",
      "pbrMetallicRoughness": {
        "baseColorTexture": {
          "index": 0
        },
        "baseColorFactor": [
          1,
          1,
          1,
          1
        ],
        "metallicFactor": 0,
        "roughnessFactor": 1
      },
      "emissiveTexture": {
        "index": 1
      },
      "emissiveFactor": [
        0,
        0,
        0
      ],
      "alphaMode": "OPAQUE",
      "doubleSided": true,
      "extensions": {
        "KHR_materials_unlit": {}
      }
    }
  ],
  "meshes": [
    {
      "name": "mesh_0",
      "primitives": [
        {
          "attributes": {
            "POSITION": 0,
            "TEXCOORD_0": 1
          },
          "indices": 2,
          "material": 0,
          "mode": 4
        }
      ]
    },
    {
      "name": "mesh_1",
      "primitives": [
        {
          "attributes": {
            "POSITION": 3,
            "TEXCOORD_0": 4
          },
          "indices": 5,
          "material": 0,
          "mode": 4
        }
      ]
    }
  ],
  "nodes": [
    {
      "name": "Root",
      "rotation": [
        0,
        0,
        0,
        1
      ],
      "scale": [
        1,
        1,
        1
      ],
      "translation": [
        0,
        0,
        0
      ],
      "children": [
        1,
        2
      ]
    },
    {
      "name": "Root",
      "rotation": [
        0,
        0,
        0,
        1
      ],
      "scale": [
        1,
        1,
        1
      ],
      "translation": [
        0,
        0,
        0
      ]
    },
    {
      "name": "Root",
      "rotation": [
        0,
        0,
        0,
        1
      ],
      "scale": [
        1,
        1,
        1
      ],
      "translation": [
        0,
        0,
        0
      ],
      "children": [
        3
      ]
    },
    {
      "name": "Group-14",
      "rotation": [
        0,
        0,
        -0.4617486000061035,
        0.8870108127593994
      ],
      "scale": [
        0.5600000023841858,
        0.5600000023841858,
        0.5600000023841858
      ],
      "translation": [
        17.72296142578125,
        58.99188995361328,
        14.773983001708984
      ],
      "children": [
        4,
        6
      ]
    },
    {
      "name": "Group-13",
      "rotation": [
        0,
        0,
        9.208218187950479e-9,
        1
      ],
      "scale": [
        1,
        1,
        1
      ],
      "translation": [
        4.759427070617676,
        -0.0000011479244221845875,
        -1.2454912662506104
      ],
      "children": [
        5
      ]
    },
    {
      "name": "Object-18",
      "mesh": 0,
      "rotation": [
        0,
        0,
        0,
        1
      ],
      "scale": [
        1,
        1,
        1
      ],
      "translation": [
        -15,
        -35.5,
        -6
      ]
    },
    {
      "name": "Object-19",
      "mesh": 1,
      "rotation": [
        -0.1573256254196167,
        -0.4925074577331543,
        0.09103819727897644,
        0.8511152267456055
      ],
      "scale": [
        1.1200001239776611,
        1.1200002431869507,
        1.1200001239776611
      ],
      "translation": [
        6.45884895324707,
        2.21543025970459,
        -4.7933349609375
      ]
    }
  ],
  "samplers": [
    {
      "wrapS": 33071,
      "wrapT": 33071,
      "magFilter": 9728,
      "minFilter": 9728
    }
  ],
  "scene": 0,
  "scenes": [
    {
      "nodes": [
        0
      ]
    }
  ],
  "textures": [
    {
      "name": "texture",
      "sampler": 0,
      "source": 0
    },
    {
      "name": "emissive texture",
      "sampler": 0,
      "source": 1
    }
  ]
}