{
  "asset": {
    "generator": "ArenaPro Web VCode Exporter",
    "version": "2.0"
  },
  "extensionsUsed": [
    "KHR_materials_unlit"
  ],
  "accessors": [
    {
      "name": "positions_0",
      "componentType": 5126,
      "count": 56,
      "type": "VEC3",
      "bufferView": 0,
      "byteOffset": 0,
      "min": [
        1,
        1,
        0
      ],
      "max": [
        15,
        14,
        2
      ]
    },
    {
      "name": "texcoords_0",
      "componentType": 5126,
      "count": 56,
      "type": "VEC2",
      "bufferView": 1,
      "byteOffset": 0,
      "min": [
        0.02702702702702703,
        0.02702702702702703
      ],
      "max": [
        0.972972972972973,
        0.972972972972973
      ]
    },
    {
      "name": "indices_0",
      "componentType": 5121,
      "count": 84,
      "type": "SCALAR",
      "bufferView": 2,
      "byteOffset": 0,
      "min": [
        0
      ],
      "max": [
        55
      ]
    },
    {
      "name": "positions_1",
      "componentType": 5126,
      "count": 24,
      "type": "VEC3",
      "bufferView": 3,
      "byteOffset": 0,
      "min": [
        8,
        1,
        2
      ],
      "max": [
        9,
        14,
        14
      ]
    },
    {
      "name": "texcoords_1",
      "componentType": 5126,
      "count": 24,
      "type": "VEC2",
      "bufferView": 4,
      "byteOffset": 0,
      "min": [
        0.4594594594594595,
        0.02702702702702703
      ],
      "max": [
        0.8648648648648649,
        0.972972972972973
      ]
    },
    {
      "name": "indices_1",
      "componentType": 5121,
      "count": 36,
      "type": "SCALAR",
      "bufferView": 5,
      "byteOffset": 0,
      "min": [
        0
      ],
      "max": [
        23
      ]
    },
    {
      "name": "positions_2",
      "componentType": 5126,
      "count": 24,
      "type": "VEC3",
      "bufferView": 6,
      "byteOffset": 0,
      "min": [
        8,
        1,
        2
      ],
      "max": [
        9,
        14,
        14
      ]
    },
    {
      "name": "texcoords_2",
      "componentType": 5126,
      "count": 24,
      "type": "VEC2",
      "bufferView": 7,
      "byteOffset": 0,
      "min": [
        0.4594594594594595,
        0.02702702702702703
      ],
      "max": [
        0.8648648648648649,
        0.972972972972973
      ]
    },
    {
      "name": "indices_2",
      "componentType": 5121,
      "count": 36,
      "type": "SCALAR",
      "bufferView": 8,
      "byteOffset": 0,
      "min": [
        0
      ],
      "max": [
        23
      ]
    },
    {
      "name": "positions_3",
      "componentType": 5126,
      "count": 24,
      "type": "VEC3",
      "bufferView": 9,
      "byteOffset": 0,
      "min": [
        1,
        1,
        0
      ],
      "max": [
        15,
        14,
        1
      ]
    },
    {
      "name": "texcoords_3",
      "componentType": 5126,
      "count": 24,
      "type": "VEC2",
      "bufferView": 10,
      "byteOffset": 0,
      "min": [
        0.02702702702702703,
        0.02702702702702703
      ],
      "max": [
        0.8648648648648649,
        0.972972972972973
      ]
    },
    {
      "name": "indices_3",
      "componentType": 5121,
      "count": 36,
      "type": "SCALAR",
      "bufferView": 11,
      "byteOffset": 0,
      "min": [
        0
      ],
      "max": [
        23
      ]
    },
    {
      "name": "positions_4",
      "componentType": 5126,
      "count": 24,
      "type": "VEC3",
      "bufferView": 12,
      "byteOffset": 0,
      "min": [
        1,
        0,
        1
      ],
      "max": [
        15,
        1,
        15
      ]
    },
    {
      "name": "texcoords_4",
      "componentType": 5126,
      "count": 24,
      "type": "VEC2",
      "bufferView": 13,
      "byteOffset": 0,
      "min": [
        0.02702702702702703,
        0.02702702702702703
      ],
      "max": [
        0.8648648648648649,
        0.972972972972973
      ]
    },
    {
      "name": "indices_4",
      "componentType": 5121,
      "count": 36,
      "type": "SCALAR",
      "bufferView": 14,
      "byteOffset": 0,
      "min": [
        0
      ],
      "max": [
        23
      ]
    },
    {
      "name": "positions_5",
      "componentType": 5126,
      "count": 24,
      "type": "VEC3",
      "bufferView": 15,
      "byteOffset": 0,
      "min": [
        1,
        0,
        1
      ],
      "max": [
        15,
        1,
        15
      ]
    },
    {
      "name": "texcoords_5",
      "componentType": 5126,
      "count": 24,
      "type": "VEC2",
      "bufferView": 16,
      "byteOffset": 0,
      "min": [
        0.02702702702702703,
        0.02702702702702703
      ],
      "max": [
        0.8648648648648649,
        0.972972972972973
      ]
    },
    {
      "name": "indices_5",
      "componentType": 5121,
      "count": 36,
      "type": "SCALAR",
      "bufferView": 17,
      "byteOffset": 0,
      "min": [
        0
      ],
      "max": [
        23
      ]
    }
  ],
  "bufferViews": [
    {
      "name": "bufferView_positions_0",
      "buffer": 0,
      "byteLength": 672,
      "byteOffset": 0,
      "byteStride": 12,
      "target": 34962
    },
    {
      "name": "bufferView_texcoords_0",
      "buffer": 0,
      "byteLength": 448,
      "byteOffset": 672,
      "byteStride": 8,
      "target": 34962
    },
    {
      "name": "bufferView_indices_0",
      "buffer": 0,
      "byteLength": 84,
      "byteOffset": 1120,
      "target": 34963
    },
    {
      "name": "bufferView_positions_1",
      "buffer": 0,
      "byteLength": 288,
      "byteOffset": 1204,
      "byteStride": 12,
      "target": 34962
    },
    {
      "name": "bufferView_texcoords_1",
      "buffer": 0,
      "byteLength": 192,
      "byteOffset": 1492,
      "byteStride": 8,
      "target": 34962
    },
    {
      "name": "bufferView_indices_1",
      "buffer": 0,
      "byteLength": 36,
      "byteOffset": 1684,
      "target": 34963
    },
    {
      "name": "bufferView_positions_2",
      "buffer": 0,
      "byteLength": 288,
      "byteOffset": 1720,
      "byteStride": 12,
      "target": 34962
    },
    {
      "name": "bufferView_texcoords_2",
      "buffer": 0,
      "byteLength": 192,
      "byteOffset": 2008,
      "byteStride": 8,
      "target": 34962
    },
    {
      "name": "bufferView_indices_2",
      "buffer": 0,
      "byteLength": 36,
      "byteOffset": 2200,
      "target": 34963
    },
    {
      "name": "bufferView_positions_3",
      "buffer": 0,
      "byteLength": 288,
      "byteOffset": 2236,
      "byteStride": 12,
      "target": 34962
    },
    {
      "name": "bufferView_texcoords_3",
      "buffer": 0,
      "byteLength": 192,
      "byteOffset": 2524,
      "byteStride": 8,
      "target": 34962
    },
    {
      "name": "bufferView_indices_3",
      "buffer": 0,
      "byteLength": 36,
      "byteOffset": 2716,
      "target": 34963
    },
    {
      "name": "bufferView_positions_4",
      "buffer": 0,
      "byteLength": 288,
      "byteOffset": 2752,
      "byteStride": 12,
      "target": 34962
    },
    {
      "name": "bufferView_texcoords_4",
      "buffer": 0,
      "byteLength": 192,
      "byteOffset": 3040,
      "byteStride": 8,
      "target": 34962
    },
    {
      "name": "bufferView_indices_4",
      "buffer": 0,
      "byteLength": 36,
      "byteOffset": 3232,
      "target": 34963
    },
    {
      "name": "bufferView_positions_5",
      "buffer": 0,
      "byteLength": 288,
      "byteOffset": 3268,
      "byteStride": 12,
      "target": 34962
    },
    {
      "name": "bufferView_texcoords_5",
      "buffer": 0,
      "byteLength": 192,
      "byteOffset": 3556,
      "byteStride": 8,
      "target": 34962
    },
    {
      "name": "bufferView_indices_5",
      "buffer": 0,
      "byteLength": 36,
      "byteOffset": 3748,
      "target": 34963
    },
    {
      "name": "bufferView_image",
      "buffer": 0,
      "byteLength": 1253,
      "byteOffset": 3784
    },
    {
      "name": "bufferView_emissive_image",
      "buffer": 0,
      "byteLength": 154,
      "byteOffset": 5037
    }
  ],
  "buffers": [
    {
      "name": "箱子",
      "byteLength": 5192,
      "uri": "data:application/octet-stream;base64,"
    }
  ],
  "images": [
    {
      "name": "image",
      "mimeType": "image/png",
      "bufferView": 18
    },
    {
      "name": "emissive image",
      "mimeType": "image/png",
      "bufferView": 19
    }
  ],
  "materials": [
    {
      "name": "material",
      "pbrMetallicRoughness": {
        "baseColorTexture": {
          "index": 0
        },
        "baseColorFactor": [
          1,
          1,
          1,
          1
        ],
        "metallicFactor": 0,
        "roughnessFactor": 1
      },
      "emissiveTexture": {
        "index": 1
      },
      "emissiveFactor": [
        0,
        0,
        0
      ],
      "alphaMode": "OPAQUE",
      "doubleSided": true,
      "extensions": {
        "KHR_materials_unlit": {}
      }
    }
  ],
  "meshes": [
    {
      "name": "mesh_0",
      "primitives": [
        {
          "attributes": {
            "POSITION": 0,
            "TEXCOORD_0": 1
          },
          "indices": 2,
          "material": 0,
          "mode": 4
        }
      ]
    },
    {
      "name": "mesh_1",
      "primitives": [
        {
          "attributes": {
            "POSITION": 3,
            "TEXCOORD_0": 4
          },
          "indices": 5,
          "material": 0,
          "mode": 4
        }
      ]
    },
    {
      "name": "mesh_2",
      "primitives": [
        {
          "attributes": {
            "POSITION": 6,
            "TEXCOORD_0": 7
          },
          "indices": 8,
          "material": 0,
          "mode": 4
        }
      ]
    },
    {
      "name": "mesh_3",
      "primitives": [
        {
          "attributes": {
            "POSITION": 9,
            "TEXCOORD_0": 10
          },
          "indices": 11,
          "material": 0,
          "mode": 4
        }
      ]
    },
    {
      "name": "mesh_4",
      "primitives": [
        {
          "attributes": {
            "POSITION": 12,
            "TEXCOORD_0": 13
          },
          "indices": 14,
          "material": 0,
          "mode": 4
        }
      ]
    },
    {
      "name": "mesh_5",
      "primitives": [
        {
          "attributes": {
            "POSITION": 15,
            "TEXCOORD_0": 16
          },
          "indices": 17,
          "material": 0,
          "mode": 4
        }
      ]
    }
  ],
  "nodes": [
    {
      "name": "Root",
      "rotation": [
        0,
        0,
        0,
        1
      ],
      "scale": [
        1,
        1,
        1
      ],
      "translation": [
        0,
        0,
        0
      ],
      "children": [
        1,
        2
      ]
    },
    {
      "name": "Root",
      "rotation": [
        0,
        0,
        0,
        1
      ],
      "scale": [
        1,
        1,
        1
      ],
      "translation": [
        0,
        0,
        0
      ]
    },
    {
      "name": "Root",
      "rotation": [
        0,
        0,
        0,
        1
      ],
      "scale": [
        1,
        1,
        1
      ],
      "translation": [
        0,
        0,
        0
      ],
      "children": [
        3,
        4,
        5,
        6,
        7,
        8
      ]
    },
    {
      "name": "侧",
      "mesh": 0,
      "rotation": [
        0,
        0,
        0,
        1
      ],
      "scale": [
        1,
        1,
        1
      ],
      "translation": [
        -1,
        -0.9588613510131836,
        13
      ]
    },
    {
      "name": "侧",
      "mesh": 1,
      "rotation": [
        0,
        0,
        0,
        1
      ],
      "scale": [
        1,
        1,
        1
      ],
      "translation": [
        -8,
        -0.9588613510131836,
        -1
      ]
    },
    {
      "name": "侧",
      "mesh": 2,
      "rotation": [
        0,
        0,
        0,
        1
      ],
      "scale": [
        1,
        1,
        1
      ],
      "translation": [
        5,
        -0.9588613510131836,
        -1
      ]
    },
    {
      "name": "侧",
      "mesh": 3,
      "rotation": [
        0,
        0,
        0,
        1
      ],
      "scale": [
        1,
        1,
        1
      ],
      "translation": [
        -1,
        -0.9588613510131836,
        0.042128562927246094
      ]
    },
    {
      "name": "顶",
      "mesh": 4,
      "rotation": [
        0,
        0,
        0,
        1
      ],
      "scale": [
        1,
        1,
        1
      ],
      "translation": [
        -1,
        0,
        -1
      ]
    },
    {
      "name": "顶",
      "mesh": 5,
      "rotation": [
        0,
        0,
        0,
        1
      ],
      "scale": [
        1,
        1,
        1
      ],
      "translation": [
        -1,
        13,
        -1
      ]
    }
  ],
  "samplers": [
    {
      "wrapS": 33071,
      "wrapT": 33071,
      "magFilter": 9728,
      "minFilter": 9728
    }
  ],
  "scene": 0,
  "scenes": [
    {
      "nodes": [
        0
      ]
    }
  ],
  "textures": [
    {
      "name": "texture",
      "sampler": 0,
      "source": 0
    },
    {
      "name": "emissive texture",
      "sampler": 0,
      "source": 1
    }
  ]
}